# xmcd
#
# Track frame offsets:
# 182
# 15555
# 30187
# 45485
# 56947
# 75245
# 91010
# 105480
# 119415
# 137202
# 147610
# 162782
# 178732
#
# Disc length: 2745 seconds
#
#
# Revision: 0
# Processed by: cddbd v1.5.2PL0 Copyright (c) Steve Scherf et al.
# Submitted via: FreeRIP 2.95 
#
DISCID=9f0ab70d
DTITLE=Frank Sinatra - Duets
DYEAR=1900
DGENRE=R&B
TTITLE0=This Lady is a Tramp
TTITLE1=What Now May Love
TTITLE2=I've Got a Crush on You
TTITLE3=Summer Wind
TTITLE4=Come Rain or Come Shine
TTITLE5=New York, New York
TTITLE6=That Can't Take Away From Me
TTITLE7=You Make Me Feel So Young
TTITLE8=Guess I'll Hang My Tears out to Dry/We Small Hours
TTITLE9=I've Got The World on a String
TTITLE10=Witchcraft
TTITLE11=I've Got You Under My Skin
TTITLE12=All The Way/One For My Baby
EXTD=
EXTT0=com Luther Vandross
EXTT1=com Aretha Franklin
EXTT2=com Barbra Streisend
EXTT3=com Julio Iglesias
EXTT4=com Gloria Estefan
EXTT5=com Tony Bennett
EXTT6=com Natalie Cole
EXTT7=com Charles Aznavour
EXTT8=com Carly Simon
EXTT9=com Lize Minnelli
EXTT10=com Anita Backer
EXTT11=com Bono
EXTT12=com Kenny G
PLAYORDER=
